<?xml version="1.0" encoding="UTF-8" standalone="no"?>
<svg width="50px" height="20px" viewBox="0 0 388 150" version="1.1" xmlns="http://www.w3.org/2000/svg" xmlns:xlink="http://www.w3.org/1999/xlink">
    <!-- Generator: Sketch 42 (36781) - http://www.bohemiancoding.com/sketch -->
    <title>PRO</title>
    <desc>Created with Sketch.</desc>
    <defs></defs>
    <g id="Page-1" stroke="none" stroke-width="1" fill="none" fill-rule="evenodd">
        <g id="Artboard" transform="translate(-27.000000, -39.000000)" fill="#000000">
            <path d="M27,49.0017993 C27,43.4779581 31.4718988,39 36.9992659,39 L404.755836,39 C410.278278,39 414.755102,43.4688327 414.755102,49.0017993 L414.755102,178.998201 C414.755102,184.522042 410.283203,189 404.755836,189 L36.9992659,189 C31.4768239,189 27,184.531167 27,178.998201 L27,49.0017993 Z M101.716954,164.510204 L101.716954,130.926996 L125.957958,130.926996 C148.403332,130.926996 160.673469,115.784567 160.673469,97.7935624 C160.673469,79.6526329 148.403332,64.5102041 125.957958,64.5102041 L75.9795918,64.5102041 L75.9795918,164.510204 L101.716954,164.510204 Z M122.214798,109.408163 L101.489796,109.408163 L101.489796,87.9795918 L122.214798,87.9795918 C129.073432,87.9795918 134.142857,91.8756957 134.142857,98.7688026 C134.142857,105.512059 129.073432,109.408163 122.214798,109.408163 Z M258.632653,164.510204 L238.145583,127.77857 C247.485277,124.480219 258.180732,115.184867 258.180732,97.7935624 C258.180732,79.2028578 245.526954,64.5102041 223.232201,64.5102041 L172.918367,64.5102041 L172.918367,164.510204 L198.828485,164.510204 L198.828485,130.926996 L212.084825,130.926996 L228.95653,164.510204 L258.632653,164.510204 Z M218.706272,109.408163 L198.428571,109.408163 L198.428571,87.9795918 L218.706272,87.9795918 C225.415805,87.9795918 231.081633,91.8756957 231.081633,98.6189525 C231.081633,105.66191 225.415805,109.408163 218.706272,109.408163 Z M320.442482,166.55102 C351.097662,166.55102 373.938776,145.341319 373.938776,115.020408 C373.938776,84.6994972 351.097662,63.4897959 320.442482,63.4897959 C289.787303,63.4897959 266.795918,84.6994972 266.795918,115.020408 C266.795918,145.341319 289.787303,166.55102 320.442482,166.55102 Z M320.44184,144.102041 C303.904481,144.102041 293.326531,131.294068 293.326531,115.020408 C293.326531,98.5960664 303.904481,85.9387755 320.44184,85.9387755 C336.830213,85.9387755 347.408163,98.5960664 347.408163,115.020408 C347.408163,131.294068 336.830213,144.102041 320.44184,144.102041 Z" id="PRO"></path>
        </g>
    </g>
</svg>
