<?xml version="1.0" encoding="UTF-8" standalone="no"?>
<svg width="25px" height="80px" viewBox="0 0 150 388" version="1.1" xmlns="http://www.w3.org/2000/svg" xmlns:xlink="http://www.w3.org/1999/xlink">
    <!-- Generator: Sketch 42 (36781) - http://www.bohemiancoding.com/sketch -->
    <title>PRO Copy</title>
    <desc>Created with Sketch.</desc>
    <defs></defs>
    <g id="Page-1" stroke="none" stroke-width="1" fill="none" fill-rule="evenodd">
        <g id="Artboard" transform="translate(-504.000000, -39.000000)" fill="#000000">
            <path d="M385.122449,167.87935 C385.122449,162.355509 389.594348,157.877551 395.121715,157.877551 L762.878285,157.877551 C768.400727,157.877551 772.877551,162.346384 772.877551,167.87935 L772.877551,297.875752 C772.877551,303.399593 768.405652,307.877551 762.878285,307.877551 L395.121715,307.877551 C389.599273,307.877551 385.122449,303.408718 385.122449,297.875752 L385.122449,167.87935 Z M459.839403,283.387755 L459.839403,249.804547 L484.080407,249.804547 C506.525781,249.804547 518.795918,234.662118 518.795918,216.671113 C518.795918,198.530184 506.525781,183.387755 484.080407,183.387755 L434.102041,183.387755 L434.102041,283.387755 L459.839403,283.387755 Z M480.337247,228.285714 L459.612245,228.285714 L459.612245,206.857143 L480.337247,206.857143 C487.195881,206.857143 492.265306,210.753247 492.265306,217.646354 C492.265306,224.38961 487.195881,228.285714 480.337247,228.285714 Z M616.755102,283.387755 L596.268032,246.656121 C605.607726,243.35777 616.303181,234.062418 616.303181,216.671113 C616.303181,198.080409 603.649403,183.387755 581.35465,183.387755 L531.040816,183.387755 L531.040816,283.387755 L556.950934,283.387755 L556.950934,249.804547 L570.207274,249.804547 L587.078979,283.387755 L616.755102,283.387755 Z M576.828721,228.285714 L556.55102,228.285714 L556.55102,206.857143 L576.828721,206.857143 C583.538254,206.857143 589.204082,210.753247 589.204082,217.496503 C589.204082,224.539461 583.538254,228.285714 576.828721,228.285714 Z M678.564931,285.428571 C709.22011,285.428571 732.061224,264.21887 732.061224,233.897959 C732.061224,203.577048 709.22011,182.367347 678.564931,182.367347 C647.909752,182.367347 624.918367,203.577048 624.918367,233.897959 C624.918367,264.21887 647.909752,285.428571 678.564931,285.428571 Z M678.564289,262.979592 C662.02693,262.979592 651.44898,250.171619 651.44898,233.897959 C651.44898,217.473617 662.02693,204.816327 678.564289,204.816327 C694.952662,204.816327 705.530612,217.473617 705.530612,233.897959 C705.530612,250.171619 694.952662,262.979592 678.564289,262.979592 Z" id="PRO-Copy" transform="translate(579.000000, 232.877551) rotate(-90.000000) translate(-579.000000, -232.877551) "></path>
        </g>
    </g>
</svg>
