<svg xmlns="http://www.w3.org/2000/svg" viewBox="0 0 1042.13 364.61"><defs><style>.a{fill:#525455;}.b,.e{fill:#9e9e9f;}.b,.f{opacity:0.2;}.c{fill:#9d1c1f;}.d{fill:#24b999;}.f,.g{fill:#fff;}.g{opacity:0.25;}.h{fill:#c02026;}</style></defs><title>Password-Audit</title><path class="a" d="M123.94,111.84a5,5,0,0,0-5,5v4.88h10v-4.88a5,5,0,0,0-5-5Zm0,0"/><path class="a" d="M137.81,88.06H19.29A19.36,19.36,0,0,0,0,107.37v34A19.35,19.35,0,0,0,19.29,160.7H137.81a19.37,19.37,0,0,0,19.31-19.29v-34a19.38,19.38,0,0,0-19.31-19.31ZM42,129.65l4.63,5-8,6-3.3-6c-.49-.86-1.24-2.54-2.3-5a51.21,51.21,0,0,1-2.34,5l-3.33,6-8.24-6,5-5a35.82,35.82,0,0,1,4.11-3.55,53.78,53.78,0,0,1-5.4-.8l-6.9-1.11,3.2-9.4,6.21,2.8q1,.45,4.85,2.76c-.56-2.5-.9-4.36-1.06-5.57L28.19,108H38l-.8,6.74a35.91,35.91,0,0,1-1.11,5.57c1.12-.57,1.88-.95,2.23-1.16,1.24-.68,2.2-1.15,2.84-1.47l6.2-2.94,3.07,9.4-6.85,1.42a38.25,38.25,0,0,1-5.58.49,34.05,34.05,0,0,1,4,3.55Zm45.39,0,4.64,5-8,6-3.29-6c-.49-.86-1.24-2.54-2.3-5a52.57,52.57,0,0,1-2.34,5l-3.35,6-8.23-6,5-5a35.55,35.55,0,0,1,4.11-3.55,54.06,54.06,0,0,1-5.4-.8l-6.9-1.11,3.2-9.4,6.2,2.8c.64.3,2.27,1.22,4.85,2.76-.57-2.5-.92-4.36-1.06-5.57l-.9-6.73h9.85l-.8,6.73a37.65,37.65,0,0,1-1.11,5.57c1.12-.57,1.87-.95,2.23-1.16,1.23-.68,2.18-1.15,2.84-1.47l6.2-2.94,3.07,9.4L89,125.61a38.16,38.16,0,0,1-5.58.49,35.2,35.2,0,0,1,4,3.55Zm50.84,8.52a3.75,3.75,0,0,1-3.75,3.76h-21a3.77,3.77,0,0,1-3.77-3.76V125.49a3.77,3.77,0,0,1,3.77-3.75h.5v-4.88a10,10,0,1,1,20,0v4.88h.51a3.76,3.76,0,0,1,3.75,3.75Zm0,0"/><path class="b" d="M181.33,208.27a111.8,111.8,0,1,0-6.13-158A111.79,111.79,0,0,0,181.33,208.27Z"/><path class="c" d="M477.94,111.84a5,5,0,0,0-5,5v4.88h10v-4.88a5,5,0,0,0-5-5Zm0,0"/><path class="c" d="M491.81,88.06H373.29A19.36,19.36,0,0,0,354,107.37v34a19.35,19.35,0,0,0,19.29,19.29H491.81a19.37,19.37,0,0,0,19.31-19.29v-34a19.38,19.38,0,0,0-19.31-19.31ZM396,129.65l4.63,5-8,6-3.3-6c-.49-.86-1.24-2.54-2.3-5a51.21,51.21,0,0,1-2.34,5l-3.33,6-8.24-6,5-5a35.82,35.82,0,0,1,4.11-3.55,53.78,53.78,0,0,1-5.4-.8l-6.9-1.11,3.2-9.4,6.21,2.8q1,.45,4.85,2.76c-.56-2.5-.9-4.36-1.06-5.57l-.88-6.74H392l-.8,6.74a35.91,35.91,0,0,1-1.11,5.57c1.12-.57,1.88-.95,2.23-1.16,1.24-.68,2.2-1.15,2.84-1.47l6.2-2.94,3.07,9.4-6.85,1.42a38.25,38.25,0,0,1-5.58.49,34.05,34.05,0,0,1,4,3.55Zm45.39,0,4.64,5-8,6-3.29-6c-.49-.86-1.24-2.54-2.3-5a52.57,52.57,0,0,1-2.34,5l-3.35,6-8.23-6,5-5a35.55,35.55,0,0,1,4.11-3.55,54.06,54.06,0,0,1-5.4-.8l-6.9-1.11,3.2-9.4,6.2,2.8c.64.3,2.27,1.22,4.85,2.76-.57-2.5-.92-4.36-1.06-5.57l-.9-6.73h9.85l-.8,6.73a37.65,37.65,0,0,1-1.11,5.57c1.12-.57,1.87-.95,2.23-1.16,1.23-.68,2.18-1.15,2.84-1.47l6.2-2.94,3.07,9.4L443,125.61a38.16,38.16,0,0,1-5.58.49,35.2,35.2,0,0,1,4,3.55Zm50.84,8.52a3.75,3.75,0,0,1-3.75,3.76h-21a3.77,3.77,0,0,1-3.77-3.76V125.49a3.77,3.77,0,0,1,3.77-3.75h.5v-4.88a10,10,0,1,1,20,0v4.88h.51a3.76,3.76,0,0,1,3.75,3.75Zm0,0"/><path class="c" d="M450.05,201.51a4.72,4.72,0,0,1,0,6.68h0a4.72,4.72,0,0,1-6.68,0l-29-28.95a4.72,4.72,0,0,1,0-6.68h0a4.72,4.72,0,0,1,6.68,0Z"/><path class="c" d="M443.37,172.56a4.72,4.72,0,0,1,6.68,0h0a4.72,4.72,0,0,1,0,6.68l-29,28.95a4.72,4.72,0,0,1-6.68,0h0a4.72,4.72,0,0,1,0-6.68Z"/><polygon class="d" points="635.12 178.51 629.19 172.48 603.95 197.27 588.91 186.57 584.01 193.46 604.81 208.26 604.82 208.25 604.83 208.25 635.12 178.51"/><path class="d" d="M654.94,111.84a5,5,0,0,0-5,5v4.88h10v-4.88a5,5,0,0,0-5-5Zm0,0"/><path class="d" d="M668.81,88.06H550.29A19.36,19.36,0,0,0,531,107.37v34a19.35,19.35,0,0,0,19.29,19.29H668.81a19.37,19.37,0,0,0,19.31-19.29v-34a19.38,19.38,0,0,0-19.31-19.31ZM573,129.65l4.63,5-8,6-3.3-6c-.49-.86-1.24-2.54-2.3-5a51.21,51.21,0,0,1-2.34,5l-3.33,6-8.24-6,5-5a35.82,35.82,0,0,1,4.11-3.55,53.78,53.78,0,0,1-5.4-.8l-6.9-1.11,3.2-9.4,6.21,2.8q1,.45,4.85,2.76c-.56-2.5-.9-4.36-1.06-5.57l-.88-6.74H569l-.8,6.74a35.91,35.91,0,0,1-1.11,5.57c1.12-.57,1.88-.95,2.23-1.16,1.24-.68,2.2-1.15,2.84-1.47l6.2-2.94,3.07,9.4-6.85,1.42a38.25,38.25,0,0,1-5.58.49,34.05,34.05,0,0,1,4,3.55Zm45.39,0,4.64,5-8,6-3.29-6c-.49-.86-1.24-2.54-2.3-5a52.57,52.57,0,0,1-2.34,5l-3.35,6-8.23-6,5-5a35.55,35.55,0,0,1,4.11-3.55,54.06,54.06,0,0,1-5.4-.8l-6.9-1.11,3.2-9.4,6.2,2.8c.64.3,2.27,1.22,4.85,2.76-.57-2.5-.92-4.36-1.06-5.57l-.9-6.73h9.85l-.8,6.73a37.65,37.65,0,0,1-1.11,5.57c1.12-.57,1.87-.95,2.23-1.16,1.23-.68,2.18-1.15,2.84-1.47l6.2-2.94,3.07,9.4L620,125.61a38.16,38.16,0,0,1-5.58.49,35.2,35.2,0,0,1,4,3.55Zm50.84,8.52a3.75,3.75,0,0,1-3.75,3.76h-21a3.77,3.77,0,0,1-3.77-3.76V125.49a3.77,3.77,0,0,1,3.77-3.75h.5v-4.88a10,10,0,1,1,20,0v4.88h.51a3.76,3.76,0,0,1,3.75,3.75Zm0,0"/><path class="c" d="M831.94,111.84a5,5,0,0,0-5,5v4.88h10v-4.88a5,5,0,0,0-5-5Zm0,0"/><path class="c" d="M845.81,88.06H727.29A19.36,19.36,0,0,0,708,107.37v34a19.35,19.35,0,0,0,19.29,19.29H845.81a19.37,19.37,0,0,0,19.31-19.29v-34a19.38,19.38,0,0,0-19.31-19.31ZM750,129.65l4.63,5-8,6-3.3-6c-.49-.86-1.24-2.54-2.3-5a51.21,51.21,0,0,1-2.34,5l-3.33,6-8.24-6,5-5a35.82,35.82,0,0,1,4.11-3.55,53.78,53.78,0,0,1-5.4-.8l-6.9-1.11,3.2-9.4,6.21,2.8q1,.45,4.85,2.76c-.56-2.5-.9-4.36-1.06-5.57l-.88-6.74H746l-.8,6.74a35.91,35.91,0,0,1-1.11,5.57c1.12-.57,1.88-.95,2.23-1.16,1.24-.68,2.2-1.15,2.84-1.47l6.2-2.94,3.07,9.4-6.85,1.42a38.25,38.25,0,0,1-5.58.49,34.05,34.05,0,0,1,4,3.55Zm45.39,0,4.64,5-8,6-3.29-6c-.49-.86-1.24-2.54-2.3-5a52.57,52.57,0,0,1-2.34,5l-3.35,6-8.23-6,5-5a35.55,35.55,0,0,1,4.11-3.55,54.06,54.06,0,0,1-5.4-.8l-6.9-1.11,3.2-9.4,6.2,2.8c.64.3,2.27,1.22,4.85,2.76-.57-2.5-.92-4.36-1.06-5.57l-.9-6.73h9.85l-.8,6.73a37.65,37.65,0,0,1-1.11,5.57c1.12-.57,1.87-.95,2.23-1.16,1.23-.68,2.18-1.15,2.84-1.47l6.2-2.94,3.07,9.4L797,125.61a38.16,38.16,0,0,1-5.58.49,35.2,35.2,0,0,1,4,3.55Zm50.84,8.52a3.75,3.75,0,0,1-3.75,3.76h-21a3.77,3.77,0,0,1-3.77-3.76V125.49a3.77,3.77,0,0,1,3.77-3.75h.5v-4.88a10,10,0,1,1,20,0v4.88h.51a3.76,3.76,0,0,1,3.75,3.75Zm0,0"/><path class="c" d="M809.15,201.51a4.72,4.72,0,0,1,0,6.68h0a4.72,4.72,0,0,1-6.68,0l-29-28.95a4.72,4.72,0,0,1,0-6.68h0a4.72,4.72,0,0,1,6.68,0Z"/><path class="c" d="M802.47,172.56a4.72,4.72,0,0,1,6.68,0h0a4.72,4.72,0,0,1,0,6.68l-29,28.95a4.72,4.72,0,0,1-6.68,0h0a4.72,4.72,0,0,1,0-6.68Z"/><path class="c" d="M1008.94,111.84a5,5,0,0,0-5,5v4.88h10v-4.88a5,5,0,0,0-5-5Zm0,0"/><path class="c" d="M1022.81,88.06H904.29A19.36,19.36,0,0,0,885,107.37v34a19.35,19.35,0,0,0,19.29,19.29h118.52a19.37,19.37,0,0,0,19.31-19.29v-34a19.38,19.38,0,0,0-19.31-19.31ZM927,129.65l4.63,5-8,6-3.3-6c-.49-.86-1.24-2.54-2.3-5a51.21,51.21,0,0,1-2.34,5l-3.33,6-8.24-6,5-5a35.82,35.82,0,0,1,4.11-3.55,53.78,53.78,0,0,1-5.4-.8l-6.9-1.11,3.2-9.4,6.21,2.8q1,.45,4.85,2.76c-.56-2.5-.9-4.36-1.06-5.57l-.88-6.74H923l-.8,6.74a35.91,35.91,0,0,1-1.11,5.57c1.12-.57,1.88-.95,2.23-1.16,1.24-.68,2.2-1.15,2.84-1.47l6.2-2.94,3.07,9.4-6.85,1.42a38.25,38.25,0,0,1-5.58.49,34.05,34.05,0,0,1,4,3.55Zm45.39,0,4.64,5-8,6-3.29-6c-.49-.86-1.24-2.54-2.3-5a52.57,52.57,0,0,1-2.34,5l-3.35,6-8.23-6,5-5a35.55,35.55,0,0,1,4.11-3.55,54.06,54.06,0,0,1-5.4-.8l-6.9-1.11,3.2-9.4,6.2,2.8c.64.3,2.27,1.22,4.85,2.76-.57-2.5-.92-4.36-1.06-5.57l-.9-6.73h9.85l-.8,6.73a37.65,37.65,0,0,1-1.11,5.57c1.12-.57,1.87-.95,2.23-1.16,1.23-.68,2.18-1.15,2.84-1.47l6.2-2.94,3.07,9.4L974,125.61a38.16,38.16,0,0,1-5.58.49,35.2,35.2,0,0,1,4,3.55Zm50.84,8.52a3.75,3.75,0,0,1-3.75,3.76h-21a3.77,3.77,0,0,1-3.77-3.76V125.49a3.77,3.77,0,0,1,3.77-3.75h.5v-4.88a10,10,0,1,1,20,0v4.88h.51a3.76,3.76,0,0,1,3.75,3.75Zm0,0"/><path class="c" d="M985.9,201.51a4.72,4.72,0,0,1,0,6.68h0a4.72,4.72,0,0,1-6.68,0l-29-28.95a4.72,4.72,0,0,1,0-6.68h0a4.72,4.72,0,0,1,6.68,0Z"/><path class="c" d="M979.22,172.56a4.72,4.72,0,0,1,6.68,0h0a4.72,4.72,0,0,1,0,6.68l-29,28.95a4.72,4.72,0,0,1-6.68,0h0a4.72,4.72,0,0,1,0-6.68Z"/><path class="d" d="M300.94,111.84a5,5,0,0,0-5,5v4.88h10v-4.88a5,5,0,0,0-5-5Zm0,0"/><path class="d" d="M314.81,88.06H196.29A19.36,19.36,0,0,0,177,107.37v34a19.35,19.35,0,0,0,19.29,19.29H314.81a19.37,19.37,0,0,0,19.31-19.29v-34a19.38,19.38,0,0,0-19.31-19.31ZM219,129.65l4.63,5-8,6-3.3-6c-.49-.86-1.24-2.54-2.3-5a51.21,51.21,0,0,1-2.34,5l-3.33,6-8.24-6,5-5a35.82,35.82,0,0,1,4.11-3.55,53.78,53.78,0,0,1-5.4-.8l-6.9-1.11,3.2-9.4,6.21,2.8q1,.45,4.85,2.76c-.56-2.5-.9-4.36-1.06-5.57l-.88-6.74H215l-.8,6.74a35.91,35.91,0,0,1-1.11,5.57c1.12-.57,1.88-.95,2.23-1.16,1.24-.68,2.2-1.15,2.84-1.47l6.2-2.94,3.07,9.4-6.85,1.42a38.25,38.25,0,0,1-5.58.49,34.05,34.05,0,0,1,4,3.55Zm45.39,0,4.64,5-8,6-3.29-6c-.49-.86-1.24-2.54-2.3-5a52.57,52.57,0,0,1-2.34,5l-3.35,6-8.23-6,5-5a35.55,35.55,0,0,1,4.11-3.55,54.06,54.06,0,0,1-5.4-.8l-6.9-1.11,3.2-9.4,6.2,2.8c.64.3,2.27,1.22,4.85,2.76-.57-2.5-.92-4.36-1.06-5.57l-.9-6.73h9.85l-.8,6.73a37.65,37.65,0,0,1-1.11,5.57c1.12-.57,1.87-.95,2.23-1.16,1.23-.68,2.18-1.15,2.84-1.47l6.2-2.94,3.07,9.4L266,125.61a38.16,38.16,0,0,1-5.58.49,35.2,35.2,0,0,1,4,3.55Zm50.84,8.52a3.75,3.75,0,0,1-3.75,3.76h-21a3.77,3.77,0,0,1-3.77-3.76V125.49a3.77,3.77,0,0,1,3.77-3.75h.5v-4.88a10,10,0,1,1,20,0v4.88h.51a3.76,3.76,0,0,1,3.75,3.75Zm0,0"/><polygon class="e" points="64.34 307.72 87.24 328.94 200.96 206.03 177.98 184.78 64.34 307.72"/><polygon class="e" points="75.72 318.22 87.24 328.94 200.96 206.03 189.35 195.32 75.72 318.22"/><path class="f" d="M181.33,208.27a111.8,111.8,0,1,0-6.13-158A111.79,111.79,0,0,0,181.33,208.27Z"/><path class="g" d="M281.33,98.27c45.35,41.92,16.11,149.13,58,103.82A111.76,111.76,0,1,0,175.2,50.32C133.24,95.61,236.07,56.36,281.33,98.27Z"/><path class="e" d="M164.61,40.47c47.2-51.13,127.28-54.22,178.4-7a126.37,126.37,0,0,1,7,178.43A126.26,126.26,0,1,1,164.61,40.47ZM323.32,54.76c-39.35-36.4-101-34-137.54,5.38a97.32,97.32,0,1,0,137.54-5.38Z"/><path class="h" d="M169.48,258.17,79.17,355.85a27.21,27.21,0,0,1-38.48,1.53l-.53-.5L149,239.2Z"/><path class="c" d="M149,239.2,40.16,356.87l-.54-.52a27.17,27.17,0,0,1-1.53-38.45l90.4-97.67Z"/></svg>